<svg width="165" height="50" viewBox="0 0 165 50" fill="none" xmlns="http://www.w3.org/2000/svg">
<g clip-path="url(#clip0_779_2218)">
<path d="M67.9372 49.7848C73.6262 49.7848 76.5856 46.5342 77.9391 43.6242H78.3519V49.2165H87.9869V2.65983H78.2371V20.164H77.9391C76.6314 17.3225 73.8097 13.8442 67.9142 13.8442C60.1836 13.8442 53.6457 19.8005 53.6457 31.8033C53.6457 43.488 59.9081 49.7848 67.9372 49.7848ZM71.0344 42.0783C66.2398 42.0783 63.6243 37.85 63.6243 31.7577C63.6243 25.7108 66.1936 21.5508 71.0344 21.5508C75.7828 21.5508 78.4439 25.5288 78.4439 31.7577C78.4439 37.9863 75.7367 42.0783 71.0344 42.0783ZM94.7297 49.2165H104.502V14.2988H94.7297V49.2165ZM99.6386 9.79802C102.552 9.79802 104.938 7.59268 104.938 4.88758C104.938 2.20533 102.552 0 99.6386 0C96.7484 0 94.3623 2.20533 94.3623 4.88758C94.3623 7.59268 96.7484 9.79802 99.6386 9.79802ZM127.096 49.8982C135.813 49.8982 141.686 45.6928 143.062 39.214L134.024 38.6228C133.038 41.2827 130.514 42.6695 127.257 42.6695C122.371 42.6695 119.273 39.4642 119.273 34.2583V34.2355H143.269V31.5757C143.269 19.7095 136.02 13.8442 126.706 13.8442C116.337 13.8442 109.616 21.1415 109.616 31.9167C109.616 42.9877 116.246 49.8982 127.096 49.8982ZM119.273 28.234C119.48 24.2558 122.531 21.0735 126.867 21.0735C131.111 21.0735 134.047 24.0738 134.07 28.234H119.273ZM158.126 2.65983H148.354V49.2165H158.126V2.65983Z" fill="#0A0D14"/>
<path d="M163.224 49.3812C164.205 49.3812 165 48.5947 165 47.6233C165 46.6518 164.205 45.865 163.224 45.865C162.242 45.865 161.448 46.6518 161.448 47.6233C161.448 48.5947 162.242 49.3812 163.224 49.3812ZM163.224 49.0537C162.424 49.0537 161.778 48.4142 161.778 47.6233C161.778 46.832 162.424 46.1927 163.224 46.1927C164.023 46.1927 164.669 46.832 164.669 47.6233C164.669 48.4142 164.023 49.0537 163.224 49.0537ZM162.622 48.4142H162.908V47.8318H163.359L163.665 48.4142H163.985L163.637 47.7703C163.796 47.687 163.918 47.5222 163.918 47.3002C163.918 46.9705 163.654 46.7923 163.408 46.7923H162.622V48.4142ZM162.908 47.61V47.0145H163.321C163.463 47.0145 163.608 47.0957 163.608 47.3002C163.608 47.5002 163.466 47.61 163.315 47.61H162.908Z" fill="#0A0D14"/>
<path fill-rule="evenodd" clip-rule="evenodd" d="M27.7547 2.72177H18.1315V18.0458L4.81162 10.4333L0 18.683L13.3604 26.3188L0.030638 33.937L4.84225 42.1867L18.1315 34.5917V49.8982H27.7547V34.5453L41.2729 42.2713L46.0845 34.0215L32.6069 26.3188L46.1151 18.5985L41.3035 10.3487L27.7547 18.0922V2.72177Z" fill="url(#paint0_linear_779_2218)"/>
</g>
<defs>
<linearGradient id="paint0_linear_779_2218" x1="0" y1="26.31" x2="46.1151" y2="26.31" gradientUnits="userSpaceOnUse">
<stop stop-color="#00FF9B"/>
<stop offset="1" stop-color="#0057FF"/>
</linearGradient>
<clipPath id="clip0_779_2218">
<rect width="165" height="50" fill="white"/>
</clipPath>
</defs>
</svg>
